<svg xmlns="http://www.w3.org/2000/svg" viewBox="0 0 2000 373" width="2000" height="373"><style>tspan { white-space:pre }.shp0 { fill: #ffffff;stroke: #141414 } .shp1 { fill: #ffffff;stroke: #000000;stroke-width: 0.8 } </style><path fill-rule="evenodd" class="shp0" d="M50.13 223.8L40.1 223.8L40.1 35.34L50.13 35.34L50.13 124.43L175.37 124.43L175.37 35.34L185.41 35.34L185.41 223.8L175.37 223.8L175.37 134.45L50.13 134.45L50.13 223.8ZM248.3 223.8L248.3 35.34L381.13 35.34L381.13 45.36L258.33 45.36L258.33 121.72L365.14 121.72L365.14 131.74L258.33 131.74L258.33 213.78L381.13 213.78L381.13 223.8L248.3 223.8ZM431.29 223.8L508.82 35.34L519.39 35.34L596.92 223.8L586.08 223.8L560.6 161.52L467.61 161.52L441.86 223.8L431.29 223.8ZM513.97 48.34L471.68 151.78L556.53 151.78L513.97 48.34ZM712.68 35.34C726.42 35.34 739.07 38.77 750.63 45.63C762.38 52.49 771.69 61.79 778.56 73.52C785.42 85.08 788.86 97.71 788.86 111.43L788.86 147.71C788.86 161.43 785.42 174.16 778.56 185.89C771.69 197.45 762.38 206.65 750.63 213.51C739.07 220.37 726.42 223.8 712.68 223.8L643.01 223.8L643.01 35.34L712.68 35.34ZM778.83 147.71L778.83 111.43C778.83 99.52 775.84 88.51 769.88 78.4C763.92 68.29 755.78 60.25 745.48 54.3C735.36 48.34 724.34 45.36 712.41 45.36L653.04 45.36L653.04 213.78L712.41 213.78C724.34 213.78 735.36 210.8 745.48 204.85C755.78 198.89 763.92 190.86 769.88 180.75C775.84 170.64 778.83 159.63 778.83 147.71ZM943.95 163.98L988.9 164.67C989.08 188.32 986.39 194.74 972.66 208.1C958.92 221.27 940.04 227.86 916 227.86C901.72 227.86 888.53 224.61 876.42 218.11C864.49 211.62 855 202.41 847.96 190.5C840.91 178.58 837.38 164.86 837.38 149.34L837.38 109.81C837.38 94.46 840.73 80.83 847.41 68.92C854.28 57.01 863.59 47.8 875.34 41.3C887.26 34.62 900.55 31.28 915.19 31.28C939.22 31.28 958.02 37.87 971.57 51.05C985.31 64.05 987.81 66.61 987.99 90.44L940.44 90.26C940.43 90.01 939.81 88.78 936.06 84.89C931.36 79.84 924.4 77.31 915.19 77.31C906.87 77.31 900.01 79.93 894.58 85.17C889.16 90.4 886.45 97.8 886.45 107.37L886.45 151.5C886.45 161.07 889.25 168.56 894.85 173.98C900.64 179.21 907.69 181.83 916 181.83C934.98 181.83 943.95 183.48 943.95 163.98ZM940.44 90.26C940.44 90.34 940.39 90.32 940.35 90.26L940.44 90.26ZM1120.33 339.79L1073.47 339.71L1073.22 198.88L1022.82 198.88L1022.69 151.83L1175.04 151.83L1174.96 198.88L1120.33 199.05L1120.33 339.79ZM1299.48 147.77C1313.57 147.77 1326.59 151.29 1338.51 158.33C1350.44 165.19 1359.84 174.58 1366.71 186.49C1373.76 198.41 1377.28 211.4 1377.28 225.48L1377.28 266.64C1377.28 280.72 1373.76 293.72 1366.71 305.63C1359.84 317.55 1350.44 327.02 1338.51 334.06C1326.59 340.92 1313.57 344.35 1299.48 344.35C1285.38 344.35 1272.37 340.92 1260.44 334.06C1248.51 327.02 1239.02 317.55 1231.97 305.63C1225.11 293.72 1221.67 280.72 1221.67 266.64L1221.67 225.48C1221.67 211.4 1225.11 198.41 1231.97 186.49C1239.02 174.58 1248.51 165.19 1260.44 158.33C1272.37 151.29 1285.38 147.77 1299.48 147.77ZM1231.7 266.64C1231.7 278.92 1234.68 290.29 1240.65 300.76C1246.79 311.05 1255.02 319.26 1265.32 325.4C1275.8 331.35 1287.19 334.33 1299.48 334.33C1311.77 334.33 1323.06 331.35 1333.36 325.4C1343.84 319.26 1352.07 311.05 1358.03 300.76C1364.18 290.29 1367.25 278.92 1367.25 266.64L1367.25 225.48C1367.25 213.21 1364.18 201.93 1358.03 191.64C1352.07 181.17 1343.84 172.95 1333.36 167C1323.06 160.86 1311.77 157.79 1299.48 157.79C1287.19 157.79 1275.8 160.86 1265.32 167C1255.02 172.95 1246.79 181.17 1240.65 191.64C1234.68 201.93 1231.7 213.21 1231.7 225.48L1231.7 266.64ZM1500.08 147.77C1514.18 147.77 1527.19 151.29 1539.12 158.33C1551.05 165.19 1560.45 174.58 1567.32 186.49C1574.36 198.41 1577.89 211.4 1577.89 225.48L1577.89 266.64C1577.89 280.72 1574.36 293.72 1567.32 305.63C1560.45 317.55 1551.05 327.02 1539.12 334.06C1527.19 340.92 1514.18 344.35 1500.08 344.35C1485.99 344.35 1472.98 340.92 1461.05 334.06C1449.12 327.02 1439.63 317.55 1432.58 305.63C1425.71 293.72 1422.28 280.72 1422.28 266.64L1422.28 225.48C1422.28 211.4 1425.71 198.41 1432.58 186.49C1439.63 174.58 1449.12 165.19 1461.05 158.33C1472.98 151.29 1485.99 147.77 1500.08 147.77ZM1432.31 266.64C1432.31 278.92 1435.29 290.29 1441.26 300.76C1447.4 311.05 1455.63 319.26 1465.93 325.4C1476.41 331.35 1487.79 334.33 1500.08 334.33C1512.37 334.33 1523.67 331.35 1533.97 325.4C1544.45 319.26 1552.68 311.05 1558.64 300.76C1564.79 290.29 1567.86 278.92 1567.86 266.64L1567.86 225.48C1567.86 213.21 1564.79 201.93 1558.64 191.64C1552.68 181.17 1544.45 172.95 1533.97 167C1523.67 160.86 1512.37 157.79 1500.08 157.79C1487.79 157.79 1476.41 160.86 1465.93 167C1455.63 172.95 1447.4 181.17 1441.26 191.64C1435.29 201.93 1432.31 213.21 1432.31 225.48L1432.31 266.64ZM1783.92 340.29L1642.41 340.29L1642.41 151.83L1652.44 151.83L1652.44 330.27L1783.92 330.27L1783.92 340.29ZM1905.37 250.12C1890.01 247.05 1877.45 243.71 1867.69 240.1C1858.11 236.31 1850.52 231.26 1844.91 224.94C1839.49 218.44 1836.78 210.14 1836.78 200.03C1836.78 189.56 1839.49 180.35 1844.91 172.41C1850.52 164.47 1858.29 158.33 1868.23 154C1878.35 149.67 1890.01 147.5 1903.2 147.5C1915.85 147.5 1927.42 150.21 1937.9 155.62C1948.56 160.86 1956.97 168.26 1963.11 177.83C1969.26 187.39 1972.33 198.32 1972.33 210.59L1962.3 210.59C1962.3 199.94 1959.68 190.55 1954.44 182.43C1949.19 174.31 1942.06 168.08 1933.02 163.75C1923.98 159.23 1913.95 156.98 1902.93 156.98C1893.17 156.98 1884.04 158.51 1875.55 161.58C1867.05 164.65 1860.1 169.34 1854.67 175.66C1849.43 181.98 1846.81 189.92 1846.81 199.49C1846.81 208.15 1849.34 215.1 1854.4 220.34C1859.46 225.39 1866.06 229.27 1874.19 231.98C1882.33 234.69 1893.71 237.58 1908.35 240.65C1923.17 243.71 1934.65 246.69 1942.78 249.58C1951.09 252.29 1958.05 256.89 1963.65 263.39C1969.44 269.89 1972.33 279.01 1972.33 290.74C1972.33 302.47 1969.17 312.4 1962.84 320.52C1956.69 328.47 1948.47 334.42 1938.17 338.39C1927.87 342.37 1916.66 344.35 1904.55 344.35C1889.55 344.35 1876.36 341.55 1864.98 335.96C1853.59 330.36 1844.82 322.51 1838.68 312.4C1832.72 302.11 1829.73 290.38 1829.73 277.2L1839.76 277.2C1839.76 288.75 1842.29 298.86 1847.35 307.53C1852.6 316.19 1860.1 322.96 1869.85 327.83C1879.61 332.53 1891.18 334.87 1904.55 334.87C1921.18 334.87 1934.92 330.9 1945.76 322.96C1956.79 315.02 1962.3 304.19 1962.3 290.47C1962.3 281.08 1959.95 273.86 1955.25 268.81C1950.55 263.75 1944.59 260.14 1937.36 257.98C1930.31 255.63 1919.65 253.01 1905.37 250.12Z" /><path class="shp0" d="M1054.84 121.76L1054.88 142.37L1163.03 142.36L1163.2 121.47L1054.84 121.76ZM1046.9 132.05C1046.9 123.1 1041.16 117.6 1032.43 117.6C1024.63 117.6 1017.97 124.02 1017.97 132.05C1017.97 140.99 1023.71 146.49 1032.43 146.49C1040.24 146.49 1046.9 140.07 1046.9 132.05Z" /><path class="shp1" d="M1062.24 127.22L1062.26 135.99L1108.29 135.99L1108.37 127.1L1062.24 127.22Z" /></svg>