<svg xmlns="http://www.w3.org/2000/svg" viewBox="0 0 723 135" width="723" height="135"><style>tspan { white-space:pre }.shp0 { fill: #000000 } .shp1 { fill: #000000;stroke: #ffffff;stroke-width: 0.9 } </style><path fill-rule="evenodd" class="shp0" d="M18.12 81L14.5 81L14.5 12.79L18.12 12.79L18.12 45.03L63.4 45.03L63.4 12.79L67.02 12.79L67.02 81L63.4 81L63.4 48.66L18.12 48.66L18.12 81ZM89.76 81L89.76 12.79L137.78 12.79L137.78 16.42L93.39 16.42L93.39 44.05L132 44.05L132 47.68L93.39 47.68L93.39 77.37L137.78 77.37L137.78 81L89.76 81ZM155.91 81L183.94 12.79L187.76 12.79L215.79 81L211.87 81L202.66 58.46L169.04 58.46L159.73 81L155.91 81ZM185.8 17.5L170.51 54.93L201.19 54.93L185.8 17.5ZM257.63 12.79C262.6 12.79 267.17 14.03 271.35 16.52C275.6 19 278.97 22.36 281.45 26.61C283.93 30.79 285.17 35.36 285.17 40.33L285.17 53.46C285.17 58.43 283.93 63.03 281.45 67.28C278.97 71.46 275.6 74.79 271.35 77.28C267.17 79.76 262.6 81 257.63 81L232.45 81L232.45 12.79L257.63 12.79ZM281.55 53.46L281.55 40.33C281.55 36.02 280.47 32.03 278.31 28.37C276.16 24.72 273.22 21.81 269.49 19.65C265.83 17.5 261.85 16.42 257.54 16.42L236.07 16.42L236.07 77.37L257.54 77.37C261.85 77.37 265.83 76.3 269.49 74.14C273.22 71.98 276.16 69.08 278.31 65.42C280.47 61.76 281.55 57.77 281.55 53.46ZM341.24 59.35L357.49 59.6C357.55 68.16 356.58 70.48 351.62 75.32C346.65 80.09 339.82 82.47 331.13 82.47C325.97 82.47 321.2 81.29 316.83 78.94C312.51 76.59 309.08 73.26 306.54 68.95C303.99 64.63 302.71 59.67 302.71 54.05L302.71 39.74C302.71 34.19 303.92 29.26 306.34 24.94C308.82 20.63 312.19 17.3 316.43 14.95C320.75 12.53 325.55 11.32 330.84 11.32C339.53 11.32 346.32 13.71 351.22 18.48C356.19 23.18 357.09 24.11 357.16 32.73L339.97 32.67C339.97 32.58 339.74 32.13 338.39 30.73C336.69 28.9 334.17 27.98 330.84 27.98C327.83 27.98 325.35 28.93 323.39 30.82C321.43 32.72 320.45 35.4 320.45 38.86L320.45 54.83C320.45 58.3 321.46 61.01 323.49 62.97C325.58 64.86 328.13 65.81 331.13 65.81C337.99 65.81 341.24 66.41 341.24 59.35ZM339.97 32.67C339.97 32.7 339.95 32.69 339.94 32.67L339.97 32.67ZM405 122.98L388.06 122.95L387.97 71.98L369.75 71.98L369.7 54.95L424.78 54.95L424.75 71.98L405 72.04L405 122.98ZM469.76 53.48C474.86 53.48 479.56 54.76 483.87 57.31C488.18 59.79 491.58 63.19 494.06 67.5C496.61 71.81 497.89 76.51 497.89 81.61L497.89 96.51C497.89 101.6 496.61 106.31 494.06 110.62C491.58 114.93 488.18 118.36 483.87 120.91C479.56 123.39 474.86 124.63 469.76 124.63C464.66 124.63 459.96 123.39 455.65 120.91C451.34 118.36 447.91 114.93 445.36 110.62C442.88 106.31 441.63 101.6 441.63 96.51L441.63 81.61C441.63 76.51 442.88 71.81 445.36 67.5C447.91 63.19 451.34 59.79 455.65 57.31C459.96 54.76 464.66 53.48 469.76 53.48ZM445.26 96.51C445.26 100.95 446.34 105.06 448.49 108.85C450.72 112.58 453.69 115.55 457.41 117.77C461.2 119.93 465.32 121.01 469.76 121.01C474.2 121.01 478.29 119.93 482.01 117.77C485.8 115.55 488.77 112.58 490.93 108.85C493.15 105.06 494.26 100.95 494.26 96.51L494.26 81.61C494.26 77.17 493.15 73.08 490.93 69.36C488.77 65.57 485.8 62.6 482.01 60.44C478.29 58.22 474.2 57.11 469.76 57.11C465.32 57.11 461.2 58.22 457.41 60.44C453.69 62.6 450.72 65.57 448.49 69.36C446.34 73.08 445.26 77.17 445.26 81.61L445.26 96.51ZM542.28 53.48C547.38 53.48 552.08 54.76 556.39 57.31C560.7 59.79 564.1 63.19 566.58 67.5C569.13 71.81 570.41 76.51 570.41 81.61L570.41 96.51C570.41 101.6 569.13 106.31 566.58 110.62C564.1 114.93 560.7 118.36 556.39 120.91C552.08 123.39 547.38 124.63 542.28 124.63C537.18 124.63 532.48 123.39 528.17 120.91C523.86 118.36 520.43 114.93 517.88 110.62C515.4 106.31 514.15 101.6 514.15 96.51L514.15 81.61C514.15 76.51 515.4 71.81 517.88 67.5C520.43 63.19 523.86 59.79 528.17 57.31C532.48 54.76 537.18 53.48 542.28 53.48ZM517.78 96.51C517.78 100.95 518.86 105.06 521.01 108.85C523.24 112.58 526.21 115.55 529.93 117.77C533.72 119.93 537.84 121.01 542.28 121.01C546.72 121.01 550.81 119.93 554.53 117.77C558.32 115.55 561.29 112.58 563.45 108.85C565.67 105.06 566.78 100.95 566.78 96.51L566.78 81.61C566.78 77.17 565.67 73.08 563.45 69.36C561.29 65.57 558.32 62.6 554.53 60.44C550.81 58.22 546.72 57.11 542.28 57.11C537.84 57.11 533.72 58.22 529.93 60.44C526.21 62.6 523.24 65.57 521.01 69.36C518.86 73.08 517.78 77.17 517.78 81.61L517.78 96.51ZM644.89 123.16L593.73 123.16L593.73 54.95L597.36 54.95L597.36 119.54L644.89 119.54L644.89 123.16ZM688.79 90.53C683.24 89.42 678.7 88.21 675.17 86.9C671.71 85.53 668.96 83.7 666.94 81.41C664.98 79.06 664 76.06 664 72.4C664 68.61 664.98 65.28 666.94 62.4C668.96 59.53 671.77 57.31 675.36 55.74C679.02 54.17 683.24 53.39 688.01 53.39C692.58 53.39 696.76 54.37 700.55 56.33C704.41 58.22 707.44 60.9 709.66 64.36C711.89 67.82 713 71.78 713 76.22L709.37 76.22C709.37 72.36 708.42 68.97 706.53 66.03C704.63 63.09 702.05 60.83 698.79 59.27C695.52 57.63 691.89 56.82 687.91 56.82C684.38 56.82 681.08 57.37 678.01 58.48C674.94 59.59 672.42 61.29 670.46 63.58C668.57 65.86 667.62 68.74 667.62 72.2C667.62 75.34 668.54 77.85 670.37 79.75C672.2 81.58 674.58 82.98 677.52 83.96C680.46 84.94 684.58 85.99 689.87 87.1C695.23 88.21 699.37 89.29 702.31 90.33C705.32 91.31 707.84 92.98 709.86 95.33C711.95 97.68 713 100.98 713 105.23C713 109.47 711.85 113.07 709.57 116.01C707.35 118.88 704.37 121.04 700.65 122.48C696.92 123.91 692.87 124.63 688.5 124.63C683.07 124.63 678.3 123.62 674.19 121.59C670.07 119.57 666.9 116.73 664.68 113.07C662.53 109.34 661.45 105.1 661.45 100.33L665.07 100.33C665.07 104.51 665.99 108.17 667.82 111.3C669.71 114.44 672.42 116.89 675.95 118.65C679.48 120.35 683.66 121.2 688.5 121.2C694.51 121.2 699.47 119.76 703.39 116.89C707.38 114.01 709.37 110.09 709.37 105.13C709.37 101.73 708.52 99.12 706.82 97.29C705.12 95.46 702.97 94.15 700.35 93.37C697.81 92.52 693.95 91.57 688.79 90.53Z" /><path class="shp0" d="M381.33 44.07L381.34 51.53L420.43 51.53L420.5 43.96L381.33 44.07ZM378.45 47.79C378.45 44.55 376.38 42.56 373.22 42.56C370.4 42.56 368 44.89 368 47.79C368 51.03 370.07 53.02 373.22 53.02C376.05 53.02 378.45 50.7 378.45 47.79Z" /><path class="shp1" d="M384 46.04L384.01 49.22L400.65 49.22L400.67 46L384 46.04Z" /></svg>